<svg width="512" height="512" viewBox="0 0 512 512" fill="none" xmlns="http://www.w3.org/2000/svg">
<g clip-path="url(#clip0_4_66)">
<rect width="512" height="512" fill="white"/>
<path d="M512 0H0V512H512V0Z" fill="url(#paint0_linear_4_66)"/>
<rect x="360" y="456" width="100" height="100" transform="rotate(-90 360 456)" stroke="white" stroke-width="21"/>
<rect x="206" y="456" width="100" height="100" transform="rotate(-90 206 456)" stroke="white" stroke-width="21"/>
<rect x="52" y="456" width="100" height="100" transform="rotate(-90 52 456)" stroke="white" stroke-width="21"/>
<mask id="path-5-inside-1_4_66" fill="white">
<path d="M371.762 103.638C387.852 108.792 404.979 124.279 408.269 152.589C430.681 158.963 459 177.039 459 227.732C459 284.401 417.052 301.73 394.848 302.975L361.036 303H225.996C202.191 302.992 124.221 302.975 124.221 302.975C124.221 302.975 95.7201 303.775 75.581 282.063C55.4418 260.35 44.5976 223.129 57.7655 189.009C70.9334 154.889 98.8186 149.461 117.409 141.707C117.409 105.803 147.179 66.6892 180.291 53.1942C222.55 36.0143 284.292 43.7079 312.533 69.6272C325.695 81.7278 332.691 94.6003 336.94 106.004C347.667 100.85 359.948 99.8289 371.762 103.638Z"/>
</mask>
<path d="M371.762 103.638C387.852 108.792 404.979 124.279 408.269 152.589C430.681 158.963 459 177.039 459 227.732C459 284.401 417.052 301.73 394.848 302.975L361.036 303H225.996C202.191 302.992 124.221 302.975 124.221 302.975C124.221 302.975 95.7201 303.775 75.581 282.063C55.4418 260.35 44.5976 223.129 57.7655 189.009C70.9334 154.889 98.8186 149.461 117.409 141.707C117.409 105.803 147.179 66.6892 180.291 53.1942C222.55 36.0143 284.292 43.7079 312.533 69.6272C325.695 81.7278 332.691 94.6003 336.94 106.004C347.667 100.85 359.948 99.8289 371.762 103.638Z" stroke="white" stroke-width="42" stroke-linejoin="round" mask="url(#path-5-inside-1_4_66)"/>
</g>
<defs>
<linearGradient id="paint0_linear_4_66" x1="0" y1="512" x2="512" y2="0" gradientUnits="userSpaceOnUse">
<stop stop-color="#B04F08"/>
<stop offset="1" stop-color="#FF8E4F"/>
</linearGradient>
<clipPath id="clip0_4_66">
<rect width="512" height="512" fill="white"/>
</clipPath>
</defs>
</svg>
