<?xml version="1.0" encoding="UTF-8"?>
<svg width="24px" height="24px" viewBox="0 0 24 24" version="1.1" xmlns="http://www.w3.org/2000/svg" xmlns:xlink="http://www.w3.org/1999/xlink">
    <title>Icon-Architecture/16/Arch_AWS-IoT-RoboRunner_16</title>
    <defs>
        <linearGradient x1="0%" y1="100%" x2="100%" y2="0%" id="linearGradient-1">
            <stop stop-color="#1B660F" offset="0%"></stop>
            <stop stop-color="#6CAE3E" offset="100%"></stop>
        </linearGradient>
    </defs>
    <g id="Icon-Architecture/16/Arch_AWS-IoT-RoboRunner_16" stroke="none" stroke-width="1" fill="none" fill-rule="evenodd">
        <g id="Rectangle" fill="url(#linearGradient-1)">
            <rect x="0" y="0" width="24" height="24"></rect>
        </g>
        <g id="Icon-Service/16/AWS-IoT-RoboRunner_16" transform="translate(4.000000, 4.000000)" fill="#FFFFFF">
            <path d="M2,14.5 C2,14.224 1.775,14 1.5,14 C1.225,14 1,14.224 1,14.5 C1,14.776 1.225,15 1.5,15 C1.775,15 2,14.776 2,14.5 L2,14.5 Z M2.908,14 L6,14 L6,15 L2.908,15 C2.701,15.581 2.151,16 1.5,16 C0.673,16 0,15.327 0,14.5 C0,13.673 0.673,13 1.5,13 C2.151,13 2.701,13.419 2.908,14 L2.908,14 Z M15,14.5 C15,14.224 14.775,14 14.5,14 C14.225,14 14,14.224 14,14.5 C14,14.776 14.225,15 14.5,15 C14.775,15 15,14.776 15,14.5 L15,14.5 Z M8,11 C9.654,11 11,9.654 11,8 C11,6.346 9.654,5 8,5 C6.346,5 5,6.346 5,8 C5,9.654 6.346,11 8,11 L8,11 Z M2,1.5 C2,1.224 1.775,1 1.5,1 C1.225,1 1,1.224 1,1.5 C1,1.776 1.225,2 1.5,2 C1.775,2 2,1.776 2,1.5 L2,1.5 Z M16,14.5 C16,15.327 15.327,16 14.5,16 C13.849,16 13.299,15.581 13.092,15 L7.993,15 C7.717,15 7.493,14.776 7.493,14.5 L7.493,11.949 C5.528,11.696 4,10.032 4,8 C4,5.968 5.528,4.304 7.493,4.051 L7.493,2 L2.908,2 C2.701,2.581 2.151,3 1.5,3 C0.673,3 0,2.327 0,1.5 C0,0.673 0.673,0 1.5,0 C2.151,0 2.701,0.419 2.908,1 L7.993,1 C8.27,1 8.493,1.224 8.493,1.5 L8.493,4.05 C10.465,4.296 12,5.963 12,8 C12,10.037 10.465,11.704 8.493,11.95 L8.493,14 L13.092,14 C13.299,13.419 13.849,13 14.5,13 C15.327,13 16,13.673 16,14.5 L16,14.5 Z M14,1.5 C14,1.776 14.225,2 14.5,2 C14.775,2 15,1.776 15,1.5 C15,1.224 14.775,1 14.5,1 C14.225,1 14,1.224 14,1.5 L14,1.5 Z M13.092,2 L10,2 L10,1 L13.092,1 C13.299,0.419 13.849,0 14.5,0 C15.327,0 16,0.673 16,1.5 C16,2.327 15.327,3 14.5,3 C13.849,3 13.299,2.581 13.092,2 L13.092,2 Z M11.73,4.308 C12.561,5.371 13,6.647 13,8 C13,9.353 12.561,10.629 11.73,11.692 L12.518,12.308 C13.487,11.068 14,9.578 14,8 C14,6.422 13.487,4.932 12.518,3.692 L11.73,4.308 Z M3.482,12.308 C2.513,11.068 2,9.578 2,8 C2,6.422 2.513,4.932 3.482,3.692 L4.27,4.308 C3.439,5.371 3,6.647 3,8 C3,9.353 3.439,10.629 4.27,11.692 L3.482,12.308 Z" id="Fill-1"></path>
        </g>
    </g>
</svg>