<?xml version="1.0" encoding="UTF-8"?>
<svg width="24px" height="24px" viewBox="0 0 24 24" version="1.1" xmlns="http://www.w3.org/2000/svg" xmlns:xlink="http://www.w3.org/1999/xlink">
    <title>Icon-Architecture/16/Arch_AWS-Billing-Conductor_16</title>
    <defs>
        <linearGradient x1="0%" y1="100%" x2="100%" y2="0%" id="linearGradient-1">
            <stop stop-color="#1B660F" offset="0%"></stop>
            <stop stop-color="#6CAE3E" offset="100%"></stop>
        </linearGradient>
    </defs>
    <g id="Icon-Architecture/16/Arch_AWS-Billing-Conductor_16" stroke="none" stroke-width="1" fill="none" fill-rule="evenodd">
        <g id="Rectangle" fill="url(#linearGradient-1)">
            <rect x="0" y="0" width="24" height="24"></rect>
        </g>
        <g id="Icon-Service/16/AWS-Billing-Conductor_16" transform="translate(4.000000, 4.000000)" fill="#FFFFFF">
            <path d="M12,12 L14,12 L14,11 L12,11 L12,12 Z M9,12 L11,12 L11,11 L9,11 L9,12 Z M6,12 L8,12 L8,11 L6,11 L6,12 Z M12,10 L14,10 L14,9 L12,9 L12,10 Z M9,10 L11,10 L11,9 L9,9 L9,10 Z M6,10 L8,10 L8,9 L6,9 L6,10 Z M7,6 L13,6 L13,4 L7,4 L7,6 Z M6,6.5 L6,3.5 C6,3.224 6.224,3 6.5,3 L13.5,3 C13.776,3 14,3.224 14,3.5 L14,6.5 C14,6.776 13.776,7 13.5,7 L6.5,7 C6.224,7 6,6.776 6,6.5 L6,6.5 Z M5,14 L15,14 L15,2 L5,2 L5,14 Z M16,1.5 L16,14.5 C16,14.776 15.776,15 15.5,15 L4.5,15 C4.224,15 4,14.776 4,14.5 L4,1.5 C4,1.224 4.224,1 4.5,1 L15.5,1 C15.776,1 16,1.224 16,1.5 L16,1.5 Z M0,10 L3,10 L3,9 L0,9 L0,10 Z M1,8 L3,8 L3,7 L1,7 L1,8 Z M0,6 L3,6 L3,5 L0,5 L0,6 Z" id="Fill-1"></path>
        </g>
    </g>
</svg>