<?xml version="1.0" encoding="UTF-8"?>
<svg width="24px" height="24px" viewBox="0 0 24 24" version="1.1" xmlns="http://www.w3.org/2000/svg" xmlns:xlink="http://www.w3.org/1999/xlink">
    <title>Icon-Architecture/16/Arch_Amazon-CloudWatch_16</title>
    <defs>
        <linearGradient x1="0%" y1="100%" x2="100%" y2="0%" id="linearGradient-1">
            <stop stop-color="#B0084D" offset="0%"></stop>
            <stop stop-color="#FF4F8B" offset="100%"></stop>
        </linearGradient>
    </defs>
    <g id="Icon-Architecture/16/Arch_Amazon-CloudWatch_16" stroke="none" stroke-width="1" fill="none" fill-rule="evenodd">
        <g id="Rectangle" fill="url(#linearGradient-1)">
            <rect x="0" y="0" width="24" height="24"></rect>
        </g>
        <g id="AWS-Digito_16_White" transform="translate(4.000000, 5.000000)" fill="#FFFFFF" fill-rule="nonzero">
            <path d="M13.402,4.15422562 C13.241,3.16822562 12.683,2.45522562 11.87,2.21822562 C11.334,2.06322562 10.782,2.14822562 10.321,2.43222562 C10.097,1.99122562 9.82,1.60422562 9.493,1.27422562 C8.231,0.00222562 6.502,-0.341774385 4.872,0.35222562 C3.476,0.94522562 2.424,2.58022562 2.424,4.15622562 C2.424,4.18622562 2.424,4.21622562 2.425,4.24522562 C1.547,4.55122562 0,5.34522562 0,7.14422562 L0.009,7.40122562 C0.002,8.21322562 0.327,9.0502256 0.856,9.5862256 C1.299,10.0332256 1.867,10.2702256 2.5,10.2712256 L3,10.2712256 L3,9.2712256 L2.501,9.2712256 C2.135,9.2702256 1.822,9.1402256 1.567,8.88322562 C1.223,8.53522562 1.005,7.95722562 1.009,7.41222562 C1.01,7.35622562 1.007,7.30022562 1,7.14422562 C1,5.73522562 2.589,5.21822562 3.075,5.09322562 C3.318,5.03122562 3.477,4.79922562 3.447,4.55022562 C3.432,4.42122562 3.424,4.29022562 3.424,4.15622562 C3.424,2.99722562 4.249,1.70322562 5.262,1.27222562 C7.053,0.51022562 8.32,1.51222562 8.783,1.97822562 C9.163,2.36122562 9.46,2.85222562 9.666,3.43822562 C9.727,3.61222562 9.881,3.73922562 10.064,3.76622562 C10.245,3.79022562 10.43,3.71722562 10.541,3.56822562 C10.796,3.22122562 11.208,3.06722562 11.59,3.17822562 C12.076,3.32022562 12.395,3.83922562 12.445,4.47922562 C12.399,4.75022562 12.582,5.00822562 12.853,5.05522562 C13.429,5.15422562 14.769,5.55922562 14.756,7.16222562 C14.75,7.83122562 14.501,8.23822562 14.292,8.46322562 L15.024,9.1442256 C15.353,8.79022562 15.748,8.16022562 15.7562487,7.17122562 C15.77,5.41822562 14.61,4.48622562 13.402,4.15422562 L13.402,4.15422562 Z M12.002,9.1602256 L12.998,9.0782256 C12.806,6.76422562 10.834,4.95222562 8.506,4.95222562 C6.021,4.95222562 4,6.97122562 4,9.45222562 C4,11.9342256 6.021,13.9522256 8.506,13.9522256 C9.628,13.9522256 10.685,13.5272256 11.5,12.8032256 L11.5,13.9522256 L12.5,13.9522256 L12.5,10.9522256 L9.5,10.9522256 L9.5,11.9522256 L10.955,11.9522256 C10.308,12.5822256 9.433,12.9522256 8.506,12.9522256 C6.573,12.9522256 5,11.3822256 5,9.45222562 C5,7.52322562 6.573,5.95222562 8.506,5.95222562 C10.317,5.95222562 11.852,7.36222562 12.002,9.1602256 L12.002,9.1602256 Z M7.43,9.9912256 L9.632,7.61222562 L10.367,8.29222562 L7.828,11.0342256 C7.729,11.1402256 7.595,11.1942256 7.461,11.1942256 C7.34,11.1942256 7.22,11.1512256 7.125,11.0652256 L5.757,9.8252256 L6.429,9.0842256 L7.43,9.9912256 Z" id="Icon-Service/16/AWS-Digito_16_Squid"></path>
        </g>
    </g>
</svg>