<?xml version="1.0" encoding="UTF-8"?>
<svg width="24px" height="24px" viewBox="0 0 24 24" version="1.1" xmlns="http://www.w3.org/2000/svg" xmlns:xlink="http://www.w3.org/1999/xlink">
    <title>Icon-Architecture/16/Arch_AWS-Private-5G_16</title>
    <defs>
        <linearGradient x1="0%" y1="100%" x2="100%" y2="0%" id="linearGradient-1">
            <stop stop-color="#C8511B" offset="0%"></stop>
            <stop stop-color="#FF9900" offset="100%"></stop>
        </linearGradient>
    </defs>
    <g id="Icon-Architecture/16/Arch_AWS-Private-5G_16" stroke="none" stroke-width="1" fill="none" fill-rule="evenodd">
        <g id="Rectangle" fill="url(#linearGradient-1)">
            <rect x="0" y="0" width="24" height="24"></rect>
        </g>
        <g id="Icon-Service/16/AWS-Private-5G_16" transform="translate(4.000000, 4.000000)" fill="#FFFFFF">
            <path d="M10.142,3.791 L10.859,3.093 L11.859,4.119 L11.142,4.817 L10.142,3.791 Z M3.084,4.381 L4.112,3.354 L4.819,4.062 L3.791,5.088 L3.084,4.381 Z M2,1.919 L5,1.919 L5,0.919 L2,0.919 L2,1.919 Z M10,1.919 L13,1.919 L13,0.919 L10,0.919 L10,1.919 Z M10,14.03 L10,9.919 L5,9.919 L5,14.006 C3.14,13.865 1.887,13.597 1.507,13.401 C1.683,10.344 4.283,7.975 7.503,7.975 C10.591,7.975 13.236,10.436 13.489,13.498 C13.118,13.671 11.936,13.912 10,14.03 L10,14.03 Z M9,14.075 C8.548,14.09 8.075,14.101 7.559,14.101 C7.005,14.101 6.492,14.085 6,14.064 L6,10.919 L9,10.919 L9,14.075 Z M6.475,2.16 C6.475,1.608 6.923,1.16 7.475,1.16 C8.027,1.16 8.475,1.608 8.475,2.16 C8.475,2.711 8.027,3.16 7.475,3.16 C6.923,3.16 6.475,2.711 6.475,2.16 L6.475,2.16 Z M7.997,7 L7.987,4.085 C8.841,3.857 9.475,3.084 9.475,2.16 C9.475,1.057 8.578,0.16 7.475,0.16 C6.372,0.16 5.475,1.057 5.475,2.16 C5.475,3.093 6.121,3.873 6.987,4.092 L6.997,6.999 C3.408,7.241 0.595,10.028 0.5,13.563 C0.5,15.027 6.38,15.101 7.559,15.101 C10.726,15.101 14.5,14.852 14.5,13.663 L14.499,13.638 C14.326,10.131 11.456,7.254 7.997,7 L7.997,7 Z" id="Fill-7"></path>
        </g>
    </g>
</svg>