<svg id="ELIXIR_HIW" data-name="ELIXIR HIW" xmlns="http://www.w3.org/2000/svg" xmlns:xlink="http://www.w3.org/1999/xlink" viewBox="0 0 24 24"><defs><style>.cls-1{fill:#a166ff;}.cls-2{fill:url(#Service_Icon);}.cls-3{fill:#fff;fill-rule:evenodd;}</style><linearGradient id="Service_Icon" x1="-932.49" y1="-1491.25" x2="-884.49" y2="-1491.25" gradientTransform="matrix(0.71, -0.71, -0.71, -0.71, -400.07, -1684.87)" gradientUnits="userSpaceOnUse"><stop offset="0" stop-color="#4d27a8"/><stop offset="1" stop-color="#a166ff"/></linearGradient></defs><rect class="cls-1" width="24" height="24"/><rect id="Purple_Gradient" data-name="Purple Gradient" class="cls-2" width="24" height="24"/><g id="Icon-Resource_Analytics_Res_CN-Elixir-Application-Discovery_48" data-name="Icon-Resource/Analytics/Res_CN-Elixir-Application-Discovery_48"><path id="Fill-1" class="cls-3" d="M5.45,12a.36.36,0,1,1-.36-.36.36.36,0,0,1,.36.36ZM4,12a1.09,1.09,0,1,0,1.09-1.09A1.09,1.09,0,0,0,4,12ZM20,5.2V18.8A1.2,1.2,0,0,1,18.8,20H5.2A1.2,1.2,0,0,1,4,18.8v-5h.73v5a.47.47,0,0,0,.47.47H18.8a.47.47,0,0,0,.47-.47V5.2a.47.47,0,0,0-.47-.47H5.2a.47.47,0,0,0-.47.47v5H4v-5A1.2,1.2,0,0,1,5.2,4H18.8A1.2,1.2,0,0,1,20,5.2ZM5.41,16.36H6.72A5.12,5.12,0,0,0,10.87,14l.63.35a5.8,5.8,0,0,1-4.78,2.75H5.41ZM16.55,6.55h.68l-.48-.48.52-.52,1.17,1.17a.37.37,0,0,1,0,.52L17.27,8.41l-.52-.52.62-.62h-.82a4.82,4.82,0,0,0-4.14,2.48l-.64-.34a5.54,5.54,0,0,1,4.78-2.86ZM12,11.88a4.56,4.56,0,0,0,4.54,4.48h.74l-.53-.52.52-.52,1.17,1.17a.37.37,0,0,1,0,.52l-1.17,1.16-.52-.51.57-.57h-.78a5.29,5.29,0,0,1-5.27-5.2A4.58,4.58,0,0,0,6.72,7.27H5.41V6.55H6.72A5.3,5.3,0,0,1,12,11.88ZM7.64,9.82a.38.38,0,0,1-.37-.37.37.37,0,0,1,.37-.36A.36.36,0,0,1,8,9.45a.37.37,0,0,1-.36.37Zm0-1.46A1.1,1.1,0,1,0,8.73,9.45,1.09,1.09,0,0,0,7.64,8.36Zm.82,4.49.67.31-.3.67-.68-.3Zm-1.27,1,2,.91.91-2-2-.91Zm9.9-4.07h1.1v3.27H17.09Zm-.73,4h2.55V9.09H16.36Zm-2.54-3.27h1.1v2.54h-1.1Zm-.73,3.27h2.55v-4H13.09Z"/></g></svg>