<?xml version="1.0" encoding="UTF-8"?>
<svg width="24px" height="24px" viewBox="0 0 24 24" version="1.1" xmlns="http://www.w3.org/2000/svg" xmlns:xlink="http://www.w3.org/1999/xlink">
    <title>Icon-Architecture/16/Arch_Amazon-GameSparks_16</title>
    <defs>
        <linearGradient x1="0%" y1="100%" x2="100%" y2="0%" id="linearGradient-1">
            <stop stop-color="#4D27A8" offset="0%"></stop>
            <stop stop-color="#A166FF" offset="100%"></stop>
        </linearGradient>
    </defs>
    <g id="Icon-Architecture/16/Arch_Amazon-GameSparks_16" stroke="none" stroke-width="1" fill="none" fill-rule="evenodd">
        <g id="Rectangle" fill="url(#linearGradient-1)">
            <rect x="0" y="0" width="24" height="24"></rect>
        </g>
        <g id="Icon-Service/16/Amazon-GameSparks_16" transform="translate(4.000000, 4.000000)" fill="#FFFFFF">
            <path d="M15,14.5 C15,14.734 14.733,15 14.5,15 C13.844,15 13.585,14.278 13.291,13.258 C13.186,12.891 13.085,12.543 12.944,12.271 C12.858,12.104 12.687,12 12.5,12 L10.5,12 C10.313,12 10.142,12.104 10.056,12.271 C9.915,12.543 9.814,12.891 9.709,13.258 C9.415,14.278 9.156,15 8.5,15 C8.267,15 8,14.734 8,14.5 L8,11 C8,10.449 8.447,10 8.996,10 L8.999,10 C9.349,10 9.642,10.075 9.824,10.212 C9.938,10.297 10,10.399 10,10.5 C10,10.776 10.224,11 10.5,11 L12.5,11 C12.776,11 13,10.776 13,10.5 C13,10.456 13.048,10.367 13.153,10.278 C13.354,10.108 13.764,9.939 14.258,10.021 C14.681,10.091 15,10.509 15,10.992 L15,14.5 Z M14.422,9.035 C13.723,8.918 12.991,9.104 12.506,9.515 C12.336,9.66 12.205,9.825 12.119,10 L10.896,10 C10.8,9.775 10.639,9.572 10.424,9.412 C10.063,9.142 9.571,9 8.999,9 L8.995,9 C7.896,9.001 7,9.898 7,11 L7,14.5 C7,15.285 7.715,16 8.5,16 C9.959,16 10.387,14.517 10.67,13.535 C10.725,13.343 10.778,13.158 10.833,13 L12.167,13 C12.222,13.158 12.275,13.343 12.33,13.535 C12.613,14.517 13.041,16 14.5,16 C15.285,16 16,15.285 16,14.5 L16,10.992 C16,10.025 15.321,9.184 14.422,9.035 L14.422,9.035 Z M11,4 L10,4 L10,3 L11,3 L11,2 L12,2 L12,3 L13,3 L13,4 L12,4 L12,5 L11,5 L11,4 Z M3.75,7.105 C3.4,6.454 2.887,5.91 2.276,5.545 C2.887,5.181 3.4,4.637 3.75,3.986 C4.1,4.637 4.613,5.181 5.224,5.545 C4.613,5.91 4.1,6.454 3.75,7.105 L3.75,7.105 Z M7.5,5.545 C7.5,5.269 7.276,5.045 7,5.045 C5.51,5.045 4.25,3.651 4.25,2 C4.25,1.724 4.026,1.5 3.75,1.5 C3.474,1.5 3.25,1.724 3.25,2 C3.25,3.651 1.99,5.045 0.5,5.045 C0.224,5.045 0,5.269 0,5.545 C0,5.822 0.224,6.045 0.5,6.045 C1.99,6.045 3.25,7.44 3.25,9.091 C3.25,9.367 3.474,9.591 3.75,9.591 C4.026,9.591 4.25,9.367 4.25,9.091 C4.25,7.44 5.51,6.045 7,6.045 C7.276,6.045 7.5,5.822 7.5,5.545 L7.5,5.545 Z" id="Fill-6"></path>
        </g>
    </g>
</svg>