<?xml version="1.0" encoding="UTF-8"?>
<svg width="24px" height="24px" viewBox="0 0 24 24" version="1.1" xmlns="http://www.w3.org/2000/svg" xmlns:xlink="http://www.w3.org/1999/xlink">
    <title>Icon-Architecture/16/Arch_AWS-IoT-FleetWise_16</title>
    <defs>
        <linearGradient x1="0%" y1="100%" x2="100%" y2="0%" id="linearGradient-1">
            <stop stop-color="#1B660F" offset="0%"></stop>
            <stop stop-color="#6CAE3E" offset="100%"></stop>
        </linearGradient>
    </defs>
    <g id="Icon-Architecture/16/Arch_AWS-IoT-FleetWise_16" stroke="none" stroke-width="1" fill="none" fill-rule="evenodd">
        <g id="Rectangle" fill="url(#linearGradient-1)">
            <rect x="0" y="0" width="24" height="24"></rect>
        </g>
        <g id="Icon-Service/16/AWS-IoT-FleetWise_16" transform="translate(4.000000, 4.000000)" fill="#FFFFFF">
            <path d="M13.059,9.98803276 C12.801,7.19403276 10.445,4.99803276 7.585,4.99803276 C4.909,4.99803276 2.676,6.92003276 2.187,9.45503276 C1.761,9.05803276 1.47,8.48003276 1.413,7.86603276 C1.404,7.78003276 1.4,7.68903276 1.4,7.59603276 C1.4,6.94003276 1.873,6.01903276 2.761,5.99503276 C3.013,5.98803276 3.221,5.79403276 3.245,5.54303276 L3.272,5.25803276 C3.275,5.22203276 3.275,5.18503276 3.27,5.14903276 C3.255,5.01703276 3.247,4.88203276 3.247,4.74603276 C3.247,3.55403276 4.1,2.22303276 5.147,1.78003276 C6.999,0.996032761 8.31,2.02703276 8.788,2.50703276 C9.181,2.90003276 9.487,3.40503276 9.699,4.00603276 C9.761,4.18103276 9.914,4.30703276 10.097,4.33403276 C10.283,4.35903276 10.464,4.28503276 10.573,4.13703276 C10.842,3.77403276 11.274,3.61903276 11.673,3.73303276 C12.178,3.88003276 12.509,4.41603276 12.559,5.09703276 C12.524,5.36303276 12.705,5.60903276 12.97,5.65403276 C13.562,5.75603276 14.939,6.17203276 14.939,7.83003276 C14.939,9.63403276 13.399,9.94103276 13.059,9.98803276 L13.059,9.98803276 Z M9.085,14.7220328 L9.085,11.7160328 C9.085,11.3270328 9.342,10.9980328 9.646,10.9980328 L12.034,10.9980328 C11.84,12.7290328 10.674,14.1550328 9.085,14.7220328 L9.085,14.7220328 Z M3.847,7.99803276 C4.655,6.79303276 6.028,5.99803276 7.585,5.99803276 C9.142,5.99803276 10.515,6.79303276 11.323,7.99803276 L3.847,7.99803276 Z M7.085,14.9470328 L7.085,11.7160328 C7.085,10.7690328 6.245,9.99803276 5.214,9.99803276 L3.135,9.99803276 C3.174,9.65103276 3.248,9.31703276 3.361,8.99803276 L11.809,8.99803276 C11.922,9.31703276 11.995,9.65103276 12.034,9.99803276 L9.646,9.99803276 C8.785,9.99803276 8.085,10.7690328 8.085,11.7160328 L8.085,14.9470328 C7.919,14.9660328 7.756,14.9980328 7.585,14.9980328 C7.414,14.9980328 7.251,14.9660328 7.085,14.9470328 L7.085,14.9470328 Z M3.135,10.9980328 L5.214,10.9980328 C5.694,10.9980328 6.085,11.3200328 6.085,11.7160328 L6.085,14.7220328 C4.495,14.1550328 3.33,12.7290328 3.135,10.9980328 L3.135,10.9980328 Z M15.939,7.83003276 C15.939,6.03803276 14.749,5.08703276 13.518,4.75203276 C13.354,3.74503276 12.785,3.01603276 11.953,2.77303276 C11.399,2.61103276 10.828,2.70203276 10.354,2.99803276 C10.123,2.54203276 9.836,2.14103276 9.497,1.80103276 C8.203,0.503032761 6.432,0.151032761 4.757,0.859032761 C3.326,1.46403276 2.247,3.13603276 2.247,4.74603276 C2.247,4.85103276 2.251,4.95503276 2.258,5.05903276 C1.099,5.34103276 0.4,6.51603276 0.4,7.59603276 C0.4,7.72303276 0.406,7.84403276 0.417,7.96003276 C0.522,9.08303276 1.164,10.0860328 2.091,10.6110328 C2.152,13.5910328 4.591,15.9980328 7.585,15.9980328 C10.448,15.9980328 12.806,13.7970328 13.059,10.9980328 L13.085,10.9980328 L13.085,10.9880328 C14.104,10.8840328 15.939,10.1080328 15.939,7.83003276 L15.939,7.83003276 Z" id="Fill-7"></path>
        </g>
    </g>
</svg>