<?xml version="1.0" encoding="UTF-8"?>
<svg width="24px" height="24px" viewBox="0 0 24 24" version="1.1" xmlns="http://www.w3.org/2000/svg" xmlns:xlink="http://www.w3.org/1999/xlink">
    <title>Amazon-Nimble_Studio_Icon_16_gradient</title>
    <defs>
        <linearGradient x1="0%" y1="100%" x2="100%" y2="0%" id="linearGradient-1">
            <stop stop-color="#055F4E" offset="0%"></stop>
            <stop stop-color="#56C0A7" offset="100%"></stop>
        </linearGradient>
    </defs>
    <g id="Amazon-Nimble_Studio_Icon_16_gradient" stroke="none" stroke-width="1" fill="none" fill-rule="evenodd">
        <g id="Arch_AWS-CloudEndure-Migration_16-Copy" fill="url(#linearGradient-1)" fill-rule="nonzero">
            <g id="Rectangle">
                <rect x="0" y="0" width="24" height="24"></rect>
            </g>
        </g>
        <g id="Group-3-Copy-2" transform="translate(4.000000, 4.000000)" fill="#FFFFFF">
            <path d="M5.67611392,14.5766966 C5.78599717,13.3698808 6.16359597,11.6625561 6.4333094,10.7734286 C6.50023829,10.9622433 6.57216187,11.14906 6.65207696,11.3328796 C6.87783709,11.8643581 7.22047304,12.6675699 7.9307184,13.4737789 C8.50510811,14.1271377 9.09847766,14.5317407 9.56198518,14.8014761 C8.27735011,15.0911918 6.92278933,15.0172643 5.67611392,14.5766966 L5.67611392,14.5766966 Z M3.81609019,14.9852957 C3.49842771,13.8404191 3.10984058,12.8483925 1.76127344,10.7504511 C1.65338806,10.5816168 1.54650163,10.4077874 1.44560883,10.2419501 C1.33572558,10.0631256 1.23183596,9.89229319 1.13294104,9.74144121 L2.46152941,7.97517436 C2.49449439,8.04410672 2.52945724,8.11603614 2.56342115,8.19096262 C2.77719402,8.66050188 2.87608895,9.01015878 3.11583422,9.85532946 L3.23870367,10.286906 C3.32461239,10.5866119 3.46046804,11.0641433 3.63827912,11.6625561 C3.70720588,11.8943287 3.93596283,12.0511748 4.17770598,12.0152101 C4.42044806,11.9852395 4.60525171,11.7854355 4.6152411,11.5416747 C4.71014027,9.4367402 5.1506722,7.48865176 5.92684751,5.75135648 C6.48525421,4.5005838 7.20349108,3.41265134 7.95169611,2.68936106 C8.181452,2.46757869 8.42619196,2.25678553 8.68491707,2.06097767 L10.0784365,4.32575535 C9.82470604,4.53554949 9.58995546,4.76632305 9.37518366,5.01507895 C9.01256894,5.43666527 8.69390751,5.94017121 8.45416224,6.47364773 C8.24538407,6.9381919 7.89675449,7.90724102 7.90174918,9.17999213 C7.90274812,9.52465393 7.90374706,10.3308628 8.24738195,11.303908 C8.41020894,11.7624581 8.9106772,12.9343082 10.0674481,13.939322 C9.65888223,13.7025544 9.16240973,13.3628877 8.67992237,12.8134268 C8.0755645,12.1280993 7.78387442,11.4417728 7.57010156,10.9412639 C7.32536159,10.3678266 7.14355476,9.76841474 7.02867682,9.1580137 C6.98971821,8.94921858 6.82289546,8.78737739 6.61311835,8.75540876 C6.39734761,8.72344012 6.19656094,8.82833719 6.09666708,9.0161529 C5.98578489,9.22694606 5.8179632,9.56461472 5.64414788,9.99619124 C5.33347797,10.7674345 4.698153,13.3998514 4.64520925,14.9852957 L3.81609019,14.9852957 Z M8.00863561,0.999019712 C8.1504849,0.999019712 8.28833843,1.01200697 8.4271909,1.02099815 C8.00963455,1.30871582 7.6150538,1.62540507 7.25743377,1.97106589 C6.4203232,2.78127088 5.62317017,3.97909551 5.01381761,5.34375644 C4.5093536,6.47564577 4.13674949,7.68945472 3.90199892,8.97019799 C3.76014963,8.48867049 3.65226426,8.17098222 3.47245531,7.77736846 C3.31662088,7.43270666 3.13980874,7.10203113 2.94801253,6.79533208 C2.86010593,6.65646834 2.70926619,6.56855461 2.54544026,6.56156147 C2.3526451,6.55756539 2.22478096,6.62949481 2.1248871,6.76036639 L1.01206947,8.2409136 L1.01606522,7.9921577 C1.01606522,4.13594161 4.15373145,0.999019712 8.00863561,0.999019712 L8.00863561,0.999019712 Z M15.001206,7.9921577 C15.001206,10.5046923 13.8684096,12.6935445 12.0453466,13.7065504 C11.9754209,13.7455122 11.8365684,13.8054534 11.7037096,13.8603995 C11.3870461,13.6895671 11.0583952,13.4767759 10.7337402,13.1960514 C9.7487867,12.3438876 9.32523673,11.3558571 9.19038001,10.9712345 C8.90268569,10.1590315 8.90168675,9.47070687 8.90065159,9.17699507 C8.89669205,8.05109986 9.22434392,7.19793702 9.36519427,6.88324582 C9.61892468,6.3197987 9.92260203,5.91020062 10.1323791,5.66643981 C10.3951,5.36173879 10.6957805,5.09000543 11.0264292,4.85823286 C11.2441978,4.70738088 11.3051331,4.41267007 11.1662806,4.18689161 L9.27928555,1.12090012 C12.5288329,1.72031194 15.001206,4.57051518 15.001206,7.9921577 L15.001206,7.9921577 Z M15.4597188,14.6835917 C15.4507284,14.6845907 14.7175074,14.7395368 13.4358692,14.4727986 C13.309004,14.4478231 13.1172078,14.4058642 12.8904487,14.341927 C14.8124066,13.078167 16.0001446,10.6985021 16.0001446,7.9921577 C16.0001446,3.58548175 12.4149539,0 8.00863561,0 C3.60231733,0 0.0171265928,3.58548175 0.0171265928,7.9921577 L0.011132961,8.39076656 C-0.00185324117,9.01415486 -0.00884581156,9.55062845 0.0211223473,9.79239122 L0.0361064267,9.79039318 C0.0470947516,9.87730789 0.0670735241,9.96522163 0.123014087,10.0381501 C0.258869741,10.2129785 0.417700982,10.4767197 0.592515242,10.7624394 C0.698402737,10.9342707 0.808285986,11.1150933 0.920167112,11.2909208 C2.36163555,13.531722 2.63035004,14.391878 2.9500104,15.611681 C3.00694991,15.8314654 3.20473975,15.9843154 3.43249776,15.9843154 L5.15267008,15.9843154 C5.29152255,15.9843154 5.42538032,15.9263722 5.52027949,15.8234732 C5.57322324,15.7645311 5.60718715,15.6945997 5.62816486,15.6196732 C6.39435079,15.8594379 7.19150382,15.9843154 8.00863561,15.9843154 C8.98559759,15.9843154 9.95756488,15.8004958 10.8656001,15.4538359 C11.4309994,15.6856085 12.1841991,15.9193791 13.0922343,15.9833164 C13.260056,15.9953046 13.4208851,16.0002997 13.5757206,16.0002997 C14.8263917,16.0002997 15.6555108,15.6576359 15.6944694,15.6416516 C15.9202295,15.5467448 16.043099,15.3009859 15.9851606,15.0632192 C15.9272221,14.8244535 15.685479,14.6546202 15.4597188,14.6835917 L15.4597188,14.6835917 Z" id="Fill-1"></path>
        </g>
    </g>
</svg>