<?xml version="1.0" encoding="UTF-8"?>
<svg width="24px" height="24px" viewBox="0 0 24 24" version="1.1" xmlns="http://www.w3.org/2000/svg" xmlns:xlink="http://www.w3.org/1999/xlink">
    <title>Icon-Architecture/16/Arch_Amazon-Route-53_16</title>
    <defs>
        <linearGradient x1="0%" y1="100%" x2="100%" y2="0%" id="linearGradient-1">
            <stop stop-color="#4D27A8" offset="0%"></stop>
            <stop stop-color="#A166FF" offset="100%"></stop>
        </linearGradient>
    </defs>
    <g id="Icon-Architecture/16/Arch_Amazon-Route-53_16" stroke="none" stroke-width="1" fill="none" fill-rule="evenodd">
        <g id="Rectangle" fill="url(#linearGradient-1)">
            <rect x="0" y="0" width="24" height="24"></rect>
        </g>
        <g id="Group-5" transform="translate(4.000000, 4.000000)" fill="#FFFFFF">
            <path d="M11.5222857,13.2536951 C9.952,13.5362179 8.60914286,14.3254517 8,14.730363 C7.39085714,14.3254517 6.048,13.5362179 4.47657143,13.2536951 C3.47428571,13.0741158 1.14285714,12.4370096 1.14285714,10.4124533 C1.14285714,9.53171412 1.48457143,8.94379211 1.84457143,8.32155559 C2.21257143,7.6878809 2.59314286,7.0336175 2.59314286,6.11284471 C2.59314286,4.87637839 1.976,3.95331796 1.54628571,3.45690133 C1.94628571,2.9673476 2.62628571,2.13579254 3.08685714,1.55358962 C3.83542857,2.17582614 4.68685714,2.51325219 5.53257143,2.51325219 C6.48342857,2.51325219 7.28,2.16781942 8,1.43348882 C8.72,2.16781942 9.51657143,2.51325219 10.4674286,2.51325219 C11.3131429,2.51325219 12.1645714,2.17582614 12.9131429,1.55358962 C13.3737143,2.13579254 14.0537143,2.9673476 14.4537143,3.45690133 C14.0228571,3.95331796 13.4068571,4.87637839 13.4068571,6.11284471 C13.4068571,7.0336175 13.7874286,7.6878809 14.1554286,8.32155559 C14.5154286,8.94379211 14.8571429,9.53171412 14.8571429,10.4124533 C14.8571429,12.4370096 12.5257143,13.0741158 11.5222857,13.2536951 M15.144,7.74735939 C14.8251429,7.19947098 14.5497143,6.72478687 14.5497143,6.11284471 C14.5497143,4.80546173 15.5748571,3.94531124 15.584,3.93730452 C15.7017143,3.8423677 15.7782857,3.70282201 15.792,3.55069433 C15.808,3.39856665 15.7622857,3.24643898 15.6651429,3.12862581 C15.6468571,3.10689329 13.8491429,0.926777831 13.4422857,0.366307437 C13.3417143,0.229049381 13.184,0.143263096 13.0148571,0.132968742 C12.8491429,0.124962022 12.6788571,0.189015781 12.5622857,0.313691849 C11.9268571,0.994263042 11.1817143,1.36943506 10.4674286,1.36943506 C9.67771429,1.36943506 9.07428571,1.02400229 8.45371429,0.211892124 C8.23771429,-0.0706307079 7.76228571,-0.0706307079 7.54628571,0.211892124 C6.92571429,1.02400229 6.32228571,1.36943506 5.53257143,1.36943506 C4.81828571,1.36943506 4.07314286,0.994263042 3.43771429,0.313691849 C3.32228571,0.189015781 3.16114286,0.126105839 2.98514286,0.132968742 C2.816,0.143263096 2.65828571,0.229049381 2.55771429,0.366307437 C2.15085714,0.926777831 0.353142857,3.10689329 0.334857143,3.12862581 C0.238857143,3.24643898 0.193142857,3.39742284 0.208,3.5484067 C0.221714286,3.69939056 0.297142857,3.84008007 0.413714286,3.93616071 C0.425142857,3.94531124 1.45028571,4.80546173 1.45028571,6.11284471 C1.45028571,6.72478687 1.17485714,7.19947098 0.856,7.74735939 C0.454857143,8.43936876 0,9.22402731 0,10.4124533 C0,12.4164209 1.59771429,13.8988079 4.27428571,14.3792111 C6.10057143,14.7074866 7.63771429,15.8718925 7.65257143,15.8833307 C7.75428571,15.9611102 7.87771429,16 8,16 C8.12228571,16 8.24571429,15.9611102 8.34742857,15.8833307 C8.36228571,15.8718925 9.89942857,14.7074866 11.7245714,14.3792111 C14.4022857,13.8988079 16,12.4164209 16,10.4124533 C16,9.22402731 15.5451429,8.43936876 15.144,7.74735939" id="Fill-1"></path>
            <polygon id="Fill-3" points="8.57142857 4 7.42857143 4 7.42857143 7.42857143 4 7.42857143 4 8.57142857 7.42857143 8.57142857 7.42857143 12 8.57142857 12 8.57142857 8.57142857 12 8.57142857 12 7.42857143 8.57142857 7.42857143"></polygon>
        </g>
    </g>
</svg>