<svg id="Layer_1" data-name="Layer 1" xmlns="http://www.w3.org/2000/svg" xmlns:xlink="http://www.w3.org/1999/xlink" viewBox="0 0 24 24"><defs><style>.cls-1{fill:url(#linear-gradient);}.cls-2{fill:#fff;fill-rule:evenodd;}</style><linearGradient id="linear-gradient" x1="-131.29" y1="252.12" x2="-130.29" y2="253.12" gradientTransform="matrix(24, 0, 0, -24, 3151, 6075)" gradientUnits="userSpaceOnUse"><stop offset="0" stop-color="#bd0816"/><stop offset="1" stop-color="#ff5252"/></linearGradient></defs><title>AWS-Network-Firewall_24bg_16icon</title><g id="Rectangle"><rect class="cls-1" width="24" height="24"/></g><path id="Fill-7" class="cls-2" d="M19,16H15V14h4Zm-4,3H11V17h4ZM8.17,14H8a3.2,3.2,0,0,1-2.7-1.48,2.39,2.39,0,0,1,0-2.46,3.39,3.39,0,0,0,.34-2.41,4.25,4.25,0,0,1,.68.87.49.49,0,0,0,.47.26.5.5,0,0,0,.43-.33,4,4,0,0,0,0-2.9A3.93,3.93,0,0,1,9.73,9.28a.51.51,0,0,0,.15.37.46.46,0,0,0,.37.13,1.62,1.62,0,0,0,1.32-1A3.11,3.11,0,0,1,12,10.5V13H9.51a.5.5,0,0,0-.5.5V14ZM14,16H10V14h4Zm3-3H13V11h4Zm2.5,0H18V10.5a.5.5,0,0,0-.5-.5H13a3.34,3.34,0,0,0-1.41-2.6.54.54,0,0,0-.48,0,.49.49,0,0,0-.26.39,1.9,1.9,0,0,1-.16.61c-.58-3.57-4.52-4.22-4.57-4.22a.48.48,0,0,0-.53.29.5.5,0,0,0,.15.59A2.51,2.51,0,0,1,6.48,7.1a2.34,2.34,0,0,0-1.62-.87.54.54,0,0,0-.42.22.49.49,0,0,0,0,.47,3.39,3.39,0,0,1,.07,2.56.67.67,0,0,0-.07.11,3.35,3.35,0,0,0,0,3.47A4.19,4.19,0,0,0,8,15H9V16.5a.5.5,0,0,0,.5.5H10v2.5a.5.5,0,0,0,.5.5h5a.51.51,0,0,0,.5-.5V17h3.5a.51.51,0,0,0,.5-.5v-3a.5.5,0,0,0-.5-.5Z"/></svg>