<?xml version="1.0" encoding="UTF-8"?>
<svg width="24px" height="24px" viewBox="0 0 24 24" version="1.1" xmlns="http://www.w3.org/2000/svg" xmlns:xlink="http://www.w3.org/1999/xlink">
    <title>Icon-Architecture/16/Arch_AWS-Mainframe-Modernization_16</title>
    <defs>
        <linearGradient x1="0%" y1="100%" x2="100%" y2="0%" id="linearGradient-1">
            <stop stop-color="#055F4E" offset="0%"></stop>
            <stop stop-color="#56C0A7" offset="100%"></stop>
        </linearGradient>
    </defs>
    <g id="Icon-Architecture/16/Arch_AWS-Mainframe-Modernization_16" stroke="none" stroke-width="1" fill="none" fill-rule="evenodd">
        <g id="Rectangle" fill="url(#linearGradient-1)">
            <rect x="0" y="0" width="24" height="24"></rect>
        </g>
        <g id="Icon-Service/16/AWS-Mainframe-Modernization_16" transform="translate(4.000000, 4.000000)" fill="#FFFFFF">
            <path d="M14.681,6.995 C14.681,6 14.043,4.943 12.862,4.943 C12.585,4.943 12.362,4.72 12.362,4.443 C12.362,3.966 12.207,2.856 10.775,2.856 L10.542,2.856 C10.361,2.856 10.193,2.757 10.105,2.598 C9.55,1.598 8.5,1 7.295,1 C5.525,1 4.084,2.441 4.084,4.211 C4.084,4.488 3.861,4.711 3.584,4.711 C2.325,4.711 1.3,5.736 1.3,6.995 C1.3,7.292 1.389,8.537 2.533,9 L5.279,6.856 L10.743,6.856 L13.411,8.94 C14.104,8.609 14.608,7.961 14.673,7.19 C14.679,7.125 14.681,7.06 14.681,6.995 L14.681,6.995 Z M12.319,9.356 L10.399,7.856 L5.622,7.856 L3.702,9.356 L5.622,10.856 L10.399,10.856 L12.319,9.356 Z M15.681,6.995 C15.681,7.09 15.677,7.183 15.669,7.276 C15.547,8.719 14.4,9.881 12.957,10.126 L10.743,11.856 L5.279,11.856 L3.092,10.149 C1.177,9.96 0.3,8.48 0.3,6.995 C0.3,5.346 1.523,3.976 3.11,3.745 C3.342,1.642 5.131,-1.11022302e-13 7.295,-1.11022302e-13 C8.764,-1.11022302e-13 10.062,0.689 10.825,1.856 C12.186,1.876 13.144,2.708 13.329,3.981 C14.699,4.209 15.681,5.429 15.681,6.995 L15.681,6.995 Z M12.581,12.08 L13.197,12.868 L10.652,14.856 L5.49,14.856 L2.945,12.868 L3.56,12.08 L5.833,13.856 L10.308,13.856 L12.581,12.08 Z" id="Fill-7"></path>
        </g>
    </g>
</svg>