<?xml version="1.0" encoding="UTF-8"?>
<svg width="24px" height="24px" viewBox="0 0 24 24" version="1.1" xmlns="http://www.w3.org/2000/svg" xmlns:xlink="http://www.w3.org/1999/xlink">
    <title>Icon-Architecture/16/Arch_Amazon-WorkSpaces-Web_16</title>
    <defs>
        <linearGradient x1="0%" y1="100%" x2="100%" y2="0%" id="linearGradient-1">
            <stop stop-color="#055F4E" offset="0%"></stop>
            <stop stop-color="#56C0A7" offset="100%"></stop>
        </linearGradient>
    </defs>
    <g id="Icon-Architecture/16/Arch_Amazon-WorkSpaces-Web_16" stroke="none" stroke-width="1" fill="none" fill-rule="evenodd">
        <g id="Icon-Architecture-BG/16/End-User-Computing" fill="url(#linearGradient-1)">
            <rect id="Rectangle" x="0" y="0" width="24" height="24"></rect>
        </g>
        <g id="Icon-Service/16/Amazon-WorkSpaces-Web_16" transform="translate(4.000000, 4.000000)" fill="#FFFFFF">
            <path d="M9,14.098 L9,10.277 L12,8.402 L12,12.223 L9,14.098 Z M4,8.309 L8,10.309 L8,14.191 L4,12.191 L4,8.309 Z M7.524,5.572 L11.479,7.549 L8.473,9.428 L4.48,7.431 L7.524,5.572 Z M12.724,7.053 L7.724,4.553 C7.569,4.475 7.386,4.483 7.239,4.574 L3.239,7.018 C3.091,7.109 3,7.27 3,7.445 L3,12.5 C3,12.69 3.107,12.863 3.276,12.948 L8.276,15.448 C8.347,15.483 8.424,15.5 8.5,15.5 C8.592,15.5 8.685,15.475 8.765,15.424 L12.765,12.924 C12.911,12.833 13,12.673 13,12.5 L13,7.5 C13,7.311 12.893,7.138 12.724,7.053 L12.724,7.053 Z M1,2 L1,1 L15,1 L15,2 L1,2 Z M15.5,0 L0.5,0 C0.367,0 0.24,0.053 0.146,0.147 C0.053,0.241 0,0.368 0,0.5 L0.001,11.5 C0.001,11.777 0.225,12 0.501,12 L2,12 L2,11 L1,11 L1,3 L15,3 L15,11 L14,11 L14,12 L15.5,12 C15.776,12 16,11.777 16,11.5 L16,0.5 C16,0.224 15.776,0 15.5,0 L15.5,0 Z" id="Fill-1"></path>
        </g>
    </g>
</svg>

